<?xml version="1.0" standalone="no"?>
<!DOCTYPE svg PUBLIC "-//W3C//DTD SVG 20010904//EN"
 "http://www.w3.org/TR/2001/REC-SVG-20010904/DTD/svg10.dtd">
<svg version="1.0" xmlns="http://www.w3.org/2000/svg"
 viewBox="0 0 2600.000000 2600.000000"
 preserveAspectRatio="xMidYMid meet">
<metadata>
Created by potrace 1.15, written by Peter Selinger 2001-2017
</metadata>
<g transform="translate(0.000000,2600.000000) scale(0.100000,-0.100000)"
fill="#000000" stroke="none">
<path d="M12900 21027 c-30 -7 -77 -25 -105 -39 -67 -35 -8079 -6842 -8124
-6903 -18 -25 -45 -76 -59 -113 -25 -66 -26 -73 -30 -373 -2 -194 0 -327 7
-364 32 -173 162 -308 329 -344 37 -8 342 -11 1022 -11 l970 0 2 -3807 3
-3808 32 -67 c54 -115 150 -199 262 -232 48 -14 144 -16 748 -16 l693 0 0
2410 0 2410 1405 0 1405 0 0 -2410 0 -2410 3648 2 3647 3 58 27 c111 52 182
128 228 243 l24 60 3 3798 2 3797 973 0 c1040 0 1028 -1 1125 49 93 48 183
161 211 266 5 23 11 191 13 391 l2 352 -37 75 c-27 54 -53 89 -95 126 -154
139 -8013 6806 -8052 6832 -83 55 -212 78 -310 56z m2330 -10387 l0 -680 -680
0 -680 0 0 680 0 680 680 0 680 0 0 -680z m1500 0 l0 -680 -680 0 -680 0 0
680 0 680 680 0 680 0 0 -680z m-1500 -1500 l0 -680 -680 0 -680 0 0 680 0
680 680 0 680 0 0 -680z m1500 0 l0 -680 -680 0 -680 0 0 680 0 680 680 0 680
0 0 -680z"/>
<path d="M10590 8200 l0 -210 210 0 210 0 0 210 0 210 -210 0 -210 0 0 -210z"/>
</g>
</svg>
